<svg aria-hidden="true" style="position: absolute; width: 0; height: 0; overflow: hidden;" version="1.1" xmlns="http://www.w3.org/2000/svg" xmlns:xlink="http://www.w3.org/1999/xlink">
<defs>
<symbol id="log-in" viewBox="0 0 32 32">
<path fill="none" stroke="#f4c550" style="stroke: var(--color1, #f4c550)" stroke-linejoin="round" stroke-linecap="round" stroke-miterlimit="4" stroke-width="3.2" d="M20 4h1.6c2.24 0 3.36 0 4.216 0.436 0.753 0.383 1.364 0.995 1.748 1.748 0.436 0.856 0.436 1.976 0.436 4.216v11.2c0 2.24 0 3.36-0.436 4.216-0.384 0.753-0.995 1.364-1.748 1.748-0.856 0.436-1.976 0.436-4.216 0.436h-1.6"></path>
<path fill="none" stroke="#f4c550" style="stroke: var(--color1, #f4c550)" stroke-linejoin="round" stroke-linecap="round" stroke-miterlimit="4" stroke-width="3.2" d="M13.333 9.333l6.667 6.667M20 16l-6.667 6.667M20 16h-16"></path>
</symbol>
<symbol id="faivorit" viewBox="0 0 38 32">
<path stroke-linejoin="round" stroke-linecap="round" stroke-miterlimit="4" stroke-width="2.9091" d="M32.839 4.355c-0.805-0.805-1.76-1.444-2.812-1.88s-2.179-0.66-3.318-0.66-2.266 0.224-3.318 0.66c-1.052 0.436-2.007 1.075-2.812 1.88l-1.67 1.67-1.67-1.67c-1.626-1.626-3.831-2.539-6.13-2.539s-4.504 0.913-6.13 2.539c-1.626 1.626-2.539 3.831-2.539 6.13s0.913 4.504 2.539 6.13l13.93 13.93 13.93-13.93c0.805-0.805 1.444-1.76 1.88-2.812s0.66-2.179 0.66-3.318-0.224-2.266-0.66-3.318c-0.436-1.052-1.075-2.007-1.88-2.812z"></path>
</symbol>
</defs>
</svg>
